<svg width="554" height="154" viewBox="0 0 554 154" fill="none" xmlns="http://www.w3.org/2000/svg">
<g filter="url(#filter0_i_73_14)">
<path d="M513 24L522 34L531 24" stroke="#FF2F02" stroke-width="19" stroke-linecap="round"/>
</g>
<g filter="url(#filter1_i_73_14)">
<path d="M533.344 34L533.228 47.3368L545.801 42.885" stroke="#FF9102" stroke-width="16" stroke-linecap="round"/>
</g>
<path d="M53.888 73.72C52.352 73.72 51.2427 73.3787 50.56 72.696C49.8773 72.0133 48.8107 70.5627 47.36 68.344L31.744 44.536C31.232 43.6827 30.6347 43.128 29.952 42.872C29.2693 42.5307 28.5867 42.36 27.904 42.36H25.728C24.6187 42.36 23.7653 42.7013 23.168 43.384C22.656 43.9813 22.4 44.9627 22.4 46.328V111.48H23.68V46.328C23.68 45.6453 23.808 45.048 24.064 44.536C24.32 43.9387 24.8747 43.64 25.728 43.64H27.648C28.2453 43.64 28.7573 43.7253 29.184 43.896C29.696 44.0667 30.208 44.5787 30.72 45.432L46.336 68.984C47.872 71.288 49.024 72.8667 49.792 73.72C50.6453 74.5733 52.0107 75 53.888 75C55.7653 75 57.088 74.5733 57.856 73.72C58.7093 72.8667 59.904 71.288 61.44 68.984L77.056 45.432C77.568 44.5787 78.0373 44.0667 78.464 43.896C78.8907 43.7253 79.4027 43.64 80 43.64H81.92C82.7733 43.64 83.328 43.9387 83.584 44.536C83.9253 45.048 84.096 45.6453 84.096 46.328V111.48H85.376V46.328C85.376 44.9627 85.0773 43.9813 84.48 43.384C83.968 42.7013 83.1147 42.36 81.92 42.36H79.744C79.0613 42.36 78.3787 42.5307 77.696 42.872C77.0987 43.128 76.544 43.6827 76.032 44.536L60.416 68.344C58.9653 70.5627 57.8987 72.0133 57.216 72.696C56.5333 73.3787 55.424 73.72 53.888 73.72ZM32.512 123H13.44C11.8187 123 10.624 122.659 9.856 121.976C9.17333 121.208 8.832 120.013 8.832 118.392V35.448C8.832 33.8267 9.17333 32.6747 9.856 31.992C10.624 31.224 11.8187 30.84 13.44 30.84H34.048C35.4133 30.84 36.5227 31.1387 37.376 31.736C38.3147 32.3333 39.168 33.3147 39.936 34.68L51.456 55.544C51.8827 56.312 52.224 56.8667 52.48 57.208C52.8213 57.5493 53.248 57.72 53.76 57.72H54.912C55.424 57.72 55.808 57.5493 56.064 57.208C56.4053 56.8667 56.7893 56.312 57.216 55.544L68.608 34.68C69.376 33.3147 70.1867 32.3333 71.04 31.736C71.9787 31.1387 73.1307 30.84 74.496 30.84H95.232C96.8533 30.84 98.0053 31.224 98.688 31.992C99.456 32.6747 99.84 33.8267 99.84 35.448V118.392C99.84 120.013 99.456 121.208 98.688 121.976C98.0053 122.659 96.8533 123 95.232 123H75.52C73.8987 123 72.704 122.659 71.936 121.976C71.2533 121.208 70.912 120.013 70.912 118.392V73.336L63.36 87.288C62.592 88.7387 61.6533 89.8053 60.544 90.488C59.52 91.0853 58.1973 91.384 56.576 91.384H51.456C49.8347 91.384 48.4693 91.0853 47.36 90.488C46.336 89.8053 45.44 88.7387 44.672 87.288L37.12 73.336V118.392C37.12 120.013 36.736 121.208 35.968 121.976C35.2853 122.659 34.1333 123 32.512 123ZM130.385 84.216C130.385 81.912 130.556 79.7787 130.897 77.816C131.324 75.8533 131.836 74.0187 132.433 72.312L140.625 51.32C141.478 49.1867 142.417 47.3947 143.441 45.944C144.465 44.408 146.257 43.64 148.817 43.64H161.361C163.75 43.64 165.457 44.408 166.481 45.944C167.505 47.3947 168.486 49.2293 169.425 51.448L178.257 72.312C178.854 74.0187 179.324 75.8533 179.665 77.816C180.092 79.7787 180.305 81.912 180.305 84.216V88.184H130.385V84.216ZM150.865 57.72L144.849 77.176H164.945L158.929 57.72C158.588 56.952 158.204 56.3973 157.777 56.056C157.436 55.7147 157.009 55.544 156.497 55.544H153.297C152.785 55.544 152.316 55.7147 151.889 56.056C151.548 56.3973 151.206 56.952 150.865 57.72ZM180.305 111.48H181.585V84.216C181.585 81.8267 181.372 79.6507 180.945 77.688C180.604 75.64 180.092 73.6773 179.409 71.8L170.577 50.936C169.553 48.4613 168.444 46.4133 167.249 44.792C166.14 43.1707 164.177 42.36 161.361 42.36H148.817C145.916 42.36 143.868 43.1707 142.673 44.792C141.478 46.4133 140.412 48.4187 139.473 50.808L131.281 71.8C130.598 73.6773 130.044 75.64 129.617 77.688C129.276 79.6507 129.105 81.8267 129.105 84.216V111.48H130.385V89.464H180.305V111.48ZM143.569 118.392C143.569 120.013 143.185 121.208 142.417 121.976C141.734 122.659 140.582 123 138.961 123H120.145C118.524 123 117.329 122.659 116.561 121.976C115.878 121.208 115.537 120.013 115.537 118.392V84.6C115.537 82.04 115.921 79.096 116.689 75.768C117.542 72.44 118.822 68.5573 120.529 64.12L131.665 35.064C132.177 33.6133 132.945 32.5467 133.969 31.864C135.078 31.1813 136.486 30.84 138.193 30.84H172.625C174.246 30.84 175.569 31.1813 176.593 31.864C177.702 32.5467 178.513 33.6133 179.025 35.064L190.161 64.12C191.868 68.5573 193.105 72.44 193.873 75.768C194.726 79.096 195.153 82.04 195.153 84.6V118.392C195.153 120.013 194.769 121.208 194.001 121.976C193.318 122.659 192.166 123 190.545 123H171.217C169.51 123 168.23 122.659 167.377 121.976C166.609 121.208 166.225 120.013 166.225 118.392V100.472H143.569V118.392ZM249.352 123H228.616C226.995 123 225.8 122.659 225.032 121.976C224.349 121.208 224.008 120.013 224.008 118.392V55.544H205.192C203.571 55.544 202.376 55.2027 201.608 54.52C200.925 53.752 200.584 52.5573 200.584 50.936V35.448C200.584 33.8267 200.925 32.6747 201.608 31.992C202.376 31.224 203.571 30.84 205.192 30.84H272.776C274.397 30.84 275.549 31.224 276.232 31.992C277 32.6747 277.384 33.8267 277.384 35.448V50.936C277.384 52.5573 277 53.752 276.232 54.52C275.549 55.2027 274.397 55.544 272.776 55.544H253.96V118.392C253.96 120.013 253.576 121.208 252.808 121.976C252.125 122.659 250.973 123 249.352 123ZM238.344 111.48H239.624V43.64H265.864V42.36H212.104V43.64H238.344V111.48ZM350.519 123H319.287C308.62 123 300.684 120.867 295.479 116.6C290.359 112.333 287.799 105.763 287.799 96.888V57.08C287.799 48.2053 290.359 41.6347 295.479 37.368C300.684 33.016 308.62 30.84 319.287 30.84H350.519C352.14 30.84 353.292 31.224 353.975 31.992C354.743 32.6747 355.127 33.8267 355.127 35.448V50.936C355.127 52.5573 354.743 53.752 353.975 54.52C353.292 55.2027 352.14 55.544 350.519 55.544H324.791C322.146 55.544 320.183 56.0987 318.903 57.208C317.623 58.232 316.983 59.8107 316.983 61.944V92.408C316.983 94.5413 317.623 96.12 318.903 97.144C320.183 98.0827 322.146 98.552 324.791 98.552H350.519C352.14 98.552 353.292 98.936 353.975 99.704C354.743 100.387 355.127 101.539 355.127 103.16V118.392C355.127 120.013 354.743 121.208 353.975 121.976C353.292 122.659 352.14 123 350.519 123ZM343.479 110.2H322.103C314.423 110.2 309.303 109.048 306.743 106.744C304.183 104.44 302.903 100.515 302.903 94.968V59.128C302.903 53.496 304.226 49.528 306.871 47.224C309.516 44.8347 314.594 43.64 322.103 43.64H343.479V42.36H322.103C313.911 42.36 308.45 43.64 305.719 46.2C302.988 48.76 301.623 53.0693 301.623 59.128V94.968C301.623 100.856 302.946 105.08 305.591 107.64C308.322 110.2 313.826 111.48 322.103 111.48H343.479V110.2ZM383.406 111.48H384.686V77.56H433.838V111.48H435.118V42.36H433.838V76.28H384.686V42.36H383.406V111.48ZM394.03 123H374.19C372.569 123 371.374 122.659 370.606 121.976C369.923 121.208 369.582 120.013 369.582 118.392V35.448C369.582 33.8267 369.923 32.6747 370.606 31.992C371.374 31.224 372.569 30.84 374.19 30.84H394.03C395.651 30.84 396.803 31.224 397.486 31.992C398.254 32.6747 398.638 33.8267 398.638 35.448V63.224H420.014V35.448C420.014 33.8267 420.355 32.6747 421.038 31.992C421.806 31.224 423.001 30.84 424.622 30.84H444.462C446.083 30.84 447.235 31.224 447.918 31.992C448.686 32.6747 449.07 33.8267 449.07 35.448V118.392C449.07 120.013 448.686 121.208 447.918 121.976C447.235 122.659 446.083 123 444.462 123H424.622C423.001 123 421.806 122.659 421.038 121.976C420.355 121.208 420.014 120.013 420.014 118.392V89.976H398.638V118.392C398.638 120.013 398.254 121.208 397.486 121.976C396.803 122.659 395.651 123 394.03 123ZM479.635 84.216C479.635 81.912 479.806 79.7787 480.147 77.816C480.574 75.8533 481.086 74.0187 481.683 72.312L489.875 51.32C490.728 49.1867 491.667 47.3947 492.691 45.944C493.715 44.408 495.507 43.64 498.067 43.64H510.611C513 43.64 514.707 44.408 515.731 45.944C516.755 47.3947 517.736 49.2293 518.675 51.448L527.507 72.312C528.104 74.0187 528.574 75.8533 528.915 77.816C529.342 79.7787 529.555 81.912 529.555 84.216V88.184H479.635V84.216ZM500.115 57.72L494.099 77.176H514.195L508.179 57.72C507.838 56.952 507.454 56.3973 507.027 56.056C506.686 55.7147 506.259 55.544 505.747 55.544H502.547C502.035 55.544 501.566 55.7147 501.139 56.056C500.798 56.3973 500.456 56.952 500.115 57.72ZM529.555 111.48H530.835V84.216C530.835 81.8267 530.622 79.6507 530.195 77.688C529.854 75.64 529.342 73.6773 528.659 71.8L519.827 50.936C518.803 48.4613 517.694 46.4133 516.499 44.792C515.39 43.1707 513.427 42.36 510.611 42.36H498.067C495.166 42.36 493.118 43.1707 491.923 44.792C490.728 46.4133 489.662 48.4187 488.723 50.808L480.531 71.8C479.848 73.6773 479.294 75.64 478.867 77.688C478.526 79.6507 478.355 81.8267 478.355 84.216V111.48H479.635V89.464H529.555V111.48ZM492.819 118.392C492.819 120.013 492.435 121.208 491.667 121.976C490.984 122.659 489.832 123 488.211 123H469.395C467.774 123 466.579 122.659 465.811 121.976C465.128 121.208 464.787 120.013 464.787 118.392V84.6C464.787 82.04 465.171 79.096 465.939 75.768C466.792 72.44 468.072 68.5573 469.779 64.12L480.915 35.064C481.427 33.6133 482.195 32.5467 483.219 31.864C484.328 31.1813 485.736 30.84 487.443 30.84H521.875C523.496 30.84 524.819 31.1813 525.843 31.864C526.952 32.5467 527.763 33.6133 528.275 35.064L539.411 64.12C541.118 68.5573 542.355 72.44 543.123 75.768C543.976 79.096 544.403 82.04 544.403 84.6V118.392C544.403 120.013 544.019 121.208 543.251 121.976C542.568 122.659 541.416 123 539.795 123H520.467C518.76 123 517.48 122.659 516.627 121.976C515.859 121.208 515.475 120.013 515.475 118.392V100.472H492.819V118.392Z" fill="url(#paint0_linear_73_14)"/>
<defs>
<filter id="filter0_i_73_14" x="503.5" y="14.4999" width="37.0002" height="37.7011" filterUnits="userSpaceOnUse" color-interpolation-filters="sRGB">
<feFlood flood-opacity="0" result="BackgroundImageFix"/>
<feBlend mode="normal" in="SourceGraphic" in2="BackgroundImageFix" result="shape"/>
<feColorMatrix in="SourceAlpha" type="matrix" values="0 0 0 0 0 0 0 0 0 0 0 0 0 0 0 0 0 0 127 0" result="hardAlpha"/>
<feOffset dy="4"/>
<feGaussianBlur stdDeviation="2"/>
<feComposite in2="hardAlpha" operator="arithmetic" k2="-1" k3="1"/>
<feColorMatrix type="matrix" values="0 0 0 0 0 0 0 0 0 0 0 0 0 0 0 0 0 0 0.25 0"/>
<feBlend mode="normal" in2="shape" result="effect1_innerShadow_73_14"/>
</filter>
<filter id="filter1_i_73_14" x="525.129" y="26" width="28.6737" height="36.6914" filterUnits="userSpaceOnUse" color-interpolation-filters="sRGB">
<feFlood flood-opacity="0" result="BackgroundImageFix"/>
<feBlend mode="normal" in="SourceGraphic" in2="BackgroundImageFix" result="shape"/>
<feColorMatrix in="SourceAlpha" type="matrix" values="0 0 0 0 0 0 0 0 0 0 0 0 0 0 0 0 0 0 127 0" result="hardAlpha"/>
<feOffset dy="4"/>
<feGaussianBlur stdDeviation="2"/>
<feComposite in2="hardAlpha" operator="arithmetic" k2="-1" k3="1"/>
<feColorMatrix type="matrix" values="0 0 0 0 0 0 0 0 0 0 0 0 0 0 0 0 0 0 0.25 0"/>
<feBlend mode="normal" in2="shape" result="effect1_innerShadow_73_14"/>
</filter>
<linearGradient id="paint0_linear_73_14" x1="276" y1="0" x2="276" y2="154" gradientUnits="userSpaceOnUse">
<stop stop-color="#FFD600"/>
<stop offset="1" stop-color="#FF0000"/>
</linearGradient>
</defs>
</svg>
